<?xml version="1.0" standalone="no"?>
<!DOCTYPE svg PUBLIC "-//W3C//DTD SVG 20010904//EN"
 "http://www.w3.org/TR/2001/REC-SVG-20010904/DTD/svg10.dtd">
<svg version="1.0" xmlns="http://www.w3.org/2000/svg"
 width="260.000000pt" height="260.000000pt" viewBox="0 0 260.000000 260.000000"
 preserveAspectRatio="xMidYMid meet">
<metadata>
Created by potrace 1.11, written by Peter Selinger 2001-2013
</metadata>
<g transform="translate(0.000000,260.000000) scale(0.100000,-0.100000)"
fill="#000000" stroke="none">
<path d="M1546 2593 c-4 -5 -98 -9 -209 -10 -411 -3 -1007 -5 -1153 -3 -84 1
-156 0 -161 -3 -5 -3 -8 -160 -6 -374 1 -202 4 -568 6 -813 2 -245 1 -512 -3
-593 -3 -82 -3 -177 1 -210 4 -34 9 -169 10 -300 0 -130 5 -240 10 -242 4 -3
95 -8 201 -11 290 -7 2317 -9 2324 -1 4 4 5 219 3 479 -5 671 -4 1086 6 1606
l8 452 -39 0 c-21 1 -68 4 -104 7 -36 4 -251 6 -478 6 -249 -1 -410 2 -407 8
7 11 1 12 -9 2z m29 -728 c137 -3 258 -8 268 -11 18 -6 19 -13 13 -78 -7 -82
-10 -522 -3 -533 9 -16 5 -463 -4 -469 -5 -3 -7 -10 -3 -15 6 -10 -1090 -9
-1099 1 -9 10 -18 353 -20 725 l-2 380 225 -3 c124 -1 252 2 285 7 33 4 67 7
76 5 8 -3 127 -6 264 -9z"/>
</g>
</svg>
