<svg version="1.1" id="Layer_1" xmlns="http://www.w3.org/2000/svg" x="0" y="0" viewBox="0 0 124.023 96.036" xml:space="preserve"><style>.st0{fill:#010101}</style><path class="st0" d="M16.604 64.832c.187.095.224-.044.29-.316.042.61.38.985.656 1.253.588.57 1.05 1.283 1.87 1.64.496.214 1.037.477 1.481.87.16.142.383.264.588.376.037.037.074.066.12.013l-.074-.062-.262-.483h.301c.073-.014.076-.03.059-.064-.164-.333-.346-.646-.73-.747-.103-.028-.104-.104-.099-.194.005-.067.011-.183-.017-.195-.373-.166-.38-.612-.64-.873-.286-.288-.498-.654-.757-.973-.101-.125-.239-.222-.37-.317-.086-.063-.205-.131-.295-.036-.09.096.034.166.078.244.076.134-.286.22-.04.376l.06.065c-.049.061-.139.177-.177.091-.13-.287-.496-.342-.574-.667-.012-.051-.041-.115-.081-.14-.93-.56-1.466-1.531-2.223-2.272-.356-.348-.72-.695-1.025-1.089-.198-.255-.258-.619-.545-.82a.083.083 0 00-.052-.053c-.038-.046-.076-.125-.141-.055-.043.046.01.087.054.112l.076.09.217.326c-.446-.066-.595-.47-.902-.623-.024-.022-.061-.068-.072-.062-.064.036-.022.081.002.123l.041.16c-.314.077-.153.34-.17.616-.72-.805-1.358-1.576-1.929-2.4-.162-.233-.379-.382-.555-.587-.704-.82-1.23-1.779-1.95-2.586-.18-.202-.373-.45-.333-.775.024-.2-.225-.046-.234-.194-.03-.552-.687-.626-.794-1.137a.609.609 0 00-.568-.471c-.51-.003-1.048-.094-1.494.328-.218.206-.535.248-.83.296-.119.02-.277.023-.278.178-.002.183.202.032.282.146-.18.226-.469.164-.689.273-.26.13-.64-.008-.787.422-.037.11-.358.115-.593.18.28-.378.652-.525 1.047-.746-.238-.08-.4-.018-.545.05-.229.107-.328-.057-.454-.187-.147-.15-.005-.31-.009-.462-.002-.127.148-.069.234-.07.181-.002.364.075.666-.033l-.466-.104c.235-.356.644-.263 1.08-.425-.561-.192-1.034-.117-1.533-.143.194-.366.562-.448.846-.647.167-.117.452-.08.406-.487-.019-.17.437-.266.718-.257.174.006.349.053.522.048.172-.005.334-.114.357-.284.018-.14-.152-.206-.264-.286-.107-.076-.454.067-.28-.307.008-.018-.209-.041-.312.034-.08.058-.164.053-.2-.037-.042-.106.048-.15.13-.166.214-.042.393-.2.647-.127.37.106.63-.08.758-.47-.11-.213-.391-.065-.552-.22.1-.125.235-.114.365-.132.073-.01.2.071.214-.076a.47.47 0 00-.065-.304c-.08-.134-.51-.029-.26-.385-.072-.034-.148-.062-.216-.103-.17-.1-.401-.072-.561-.313.588.136 1.134.257 1.677.393.099.024.193.068.24-.045.045-.11-.078-.13-.138-.163a6.577 6.577 0 01-1.03-.696c.042-.163.478.045.256-.332-.03-.05.105-.132.24-.063.22.11.429.115.658.077.56-.094 1.134.117 1.741-.1-.113-.058-.195-.107-.282-.14-.088-.035-.228-.026-.194-.17.029-.118.147-.141.265-.137.433.013.833.154 1.197.375.18.109.33.065.434-.032.086-.08.274-.165.144-.399-.102-.183.25-.647.509-.734.203-.068.57-.337.684-.504-.222-.113-.393.342-.656.045.116-.048.215-.077.3-.13.123-.075.474-.047.166-.354-.032-.03-.005-.184.042-.23.149-.15.189-.227-.072-.25-.095-.008-.07-.116-.033-.165.218-.288.247-.755.468-.936.591-.483.696-1.285 1.236-1.777.137-.125.236-.311.467-.248.05-.095-.033-.151-.053-.222-.116-.43-.194-.841.296-1.108.11-.06.18-.204.26-.316.03-.041.066-.108.054-.149-.133-.446-.14-.448.12-.835.08-.12.14-.265.277-.337.142.178-.09.426.064.54.161.118.127-.205.24-.216.362.294-.552.457-.032.75-.054.112-.12.061-.176.052-.122-.02-.186.055-.19.159-.003.076.048.154.075.231.068-.037.14-.067.203-.112.333-.245.432-.713.771-.928.284-.18.196-.55.464-.725.247-.16.429-.408.621-.634.255-.3.316-.872.851-.896.078-.003.12-.072.119-.145-.001-.242.144-.284.4-.21-.147-.273-.718-.19-.39-.643l-.008.011.237-.144c-.09.286-.092.273.187.239.07-.008.202-.04.253.068.04.084-.017.172-.077.219-.404.317-.351.977-.888 1.218-.162.073-.112.401-.114.62-.17.064-.344.116-.506.196-.161.079-.26.22-.165.407.092.18.216.058.343.022.276-.08.243-.377.39-.543.506-.402.94-.88 1.348-1.393-.064-.11-.275-.054-.331-.251.66.05.926-.432 1.179-.927.058-.114.094-.242.236-.277.133-.033.224-.102.186-.26-.041-.176.076-.132.162-.132.104 0 .181.007.14.164-.046.172.05.375-.242.446-.231.057-.355.278-.22.552-.255-.036-.328.207-.449.348-.1.117-.263.254-.18.47.204-.123.423-.22.51-.472.24-.14.24-.484.44-.617.239-.16.446-.314.476-.616.047-.467.567-.408.746-.766.243-.489.855-.684 1.026-1.274.029-.099.273-.117.404-.248.252-.256.06-.417-.062-.598-.02-.027-.112-.173-.172-.018-.167.428-.622.378-.916.611.066-.132.157-.239.174-.382l-.002-.004.025-.118c.252.113.144-.294.433-.29.303.004.637-.123.967-.125.066 0 .137.027.155-.072.013-.066-.034-.092-.078-.126-.054-.042-.182.005-.155-.131.08-.103.171-.032.259-.026.065.005.085-.056.104-.107.023-.06.01-.109-.06-.117-.414-.051-.279-.424-.372-.672-.17.06-.331.172-.526.164-.123-.148.04-.217.092-.3.312-.487.274-.615-.238-.735l.002-.002c.141-.015.165-.165.256-.24.126-.102.21-.215.413-.096.227.132.325-.125.416-.273.11-.18-.067-.18-.172-.226-.147-.065-.21-.306-.431-.217l-.07-.05c.146-.3.396-.524.568-.803.067-.109.318-.174.11-.42-.06-.068.218-.042.383-.067l-.367.758c.137.078.208-.041.297-.064l.058.068c-.053.222-.273.377-.26.644.197-.032.29-.23.549-.235-.131.192-.236.35-.345.505-.143.2-.313.386-.283.668.005.045-.025.127-.057.139-.466.172-.24.485-.151.84.118-.329.378-.388.629-.563-.082.348-.09.661-.393.857.222.13.299.007.333-.104.12-.383.416-.603.706-.82.09-.066.126-.102.122-.215-.007-.237.13-.414.257-.597.075-.107.27-.189.106-.379-.048-.055.003-.076.058-.105.465-.235.705-.644.816-1.15l-.01.01c.281-.287.634-.376 1.013-.433.206-.03.092-.107-.018-.144.091-.088.17-.199.276-.258.226-.125.422-.282.582-.486.048-.06.12-.133-.016-.179.007.06.033.091.093.063.009-.004.018-.024.015-.033-.022-.074-.07-.026-.109-.023-.287.26-.458-.064-.68-.145.04-.133.161-.172.253-.247.095-.078.3-.004.293-.217-.007-.196-.226-.088-.295-.204.53-.28.738-.7.493-.989l-.011.003c.16-.04.312-.106.48.019.12.088.273.1.408-.02.297-.265.282-.37-.088-.614.23-.27.32-.615.539-1.012-.428.144-.425.609-.741.713l-.07-.1c.478-.597.832-1.281 1.533-1.708.327-.199.759-.503.87-1.037-.262.07-.494.217-.764.186-.107-.012-.237.165-.321.005-.09-.169.092-.266.168-.386.027-.043.1-.054.217-.112-.492-.18-.538.313-.788.437-.094-.615.307-.88 1.254-.846.087-.151-.097-.156-.137-.24-.115-.239-.132-.383.18-.392.306-.01.388-.339.633-.47.57-.302.906-.873 1.308-1.45-.26.007-.447.008-.659.117.035-.39.341-.556.49-.82-.232-.158-.234.139-.377.19-.078-.505.333-.73.563-1.039.098-.13 0-.16-.008-.236l.078-.067c.032.023.086.04.092.069.069.308.235.42.518.275.104.17-.137.186-.093.314.132.076.219-.058.33-.08.21-.04.219.04.111.194-.322.034-.448.236-.493.605.23-.174.294-.413.495-.512.07.015.133 0 .184-.055.26-.283.524-.55.947-.307.08.046.153-.004.203-.082.062-.096.024-.137-.065-.186-.089-.05-.074-.144-.01-.209.032-.032.103-.054.144-.04.08.027.132.097.122.192-.018.171-.156.34.013.527-.192-.113-.399-.024-.572-.146-.087-.062-.178.055-.21.14-.054.14.073.105.14.152.36.256.808.297 1.158.565-.062.103-.166.218-.181.378-.012.126.031.237.155.25.16.015.105-.124.1-.21-.016-.285.12-.425.378-.476.076.157-.168.2-.077.338-.13.031-.115.099-.026.215l.018-.224c.393-.062.523-.489.843-.652l.035-.018c-.24-.515.425-.467.475-.814.017-.115.106-.221.083-.353.095-.116.28-.164.256-.39-.178.004-.277.14-.396.237-.154-.208.012-.327.132-.432.18-.159.42-.259.353-.606.34.218.117.432.076.637.688-.183.85-.58.806-1.897-.336-.068-.167.338-.416.427.028-.31.166-.671.047-.86a.647.647 0 01-.113-.445c.016-.221.041-.442.069-.663.06-.484.128-.513.55-.284.094.05.192.323.344-.027.07-.163.198.125.208.243.027.334.155.445.455.282-.315.409-.358.822.022 1.255.295-.382.247-.874.336-1.32.017-.087-.11-.098-.193-.097.047-.28.291-.364.472-.51l.066.05c-.117.27-.188.546-.107.883.201-.26.147-.64.493-.864-.153.574-.412 1.1-.046 1.641.067.015.135-.065.216-.107.068-.036.134-.039.18.024.057.08.035.147-.047.206-.158.113-.31.238-.242.472.018.063.075.144.145.116.2-.082.238-.291.285-.472.058-.227.075-.465.12-.696.08-.421-.027-.875.283-1.262.106-.133.04-.414.053-.647-.22.057-.18.234-.244.344-.042.074-.113.221-.146.175-.083-.115-.257-.011-.308-.193-.077-.274.102-.888.375-.997.485-.193.617-.606.63-1.057.009-.332.279-.5.34-.783.017-.079.084-.027.128-.01.137.05.167.168.174.3.023.416.037.834.071 1.25.015.18-.046.482.203.468.21-.012.23-.297.23-.508-.002-.264.016-.533-.095-.78-.117-.262-.009-.433.208-.546.422-.222.757-.491.759-1.052 0-.398.492-.373.632-.69.026-.057.214.133.22.271.005.132-.046.266-.073.4l.008-.005c-.073.055-.155.1-.217.167a.577.577 0 00-.123.544c.052.204.256.17.412.174.133.003.27-.012.399-.043.156-.036.222.06.284.171.028.05.102.15-.001.15-.106 0-.149.212-.303.055-.154-.156-.143.085-.161.136-.213.601-.402 1.21-.517 1.84-.043.238-.06.509-.335.627-.117-.096 0-.242-.089-.36-.133.166-.257.363-.179.556.292.716.084 1.57.591 2.226.114.148-.151.667-.343.728-.426.136-.722.778-.581 1.213.054.166.209-.02.257.13-.476.022-.085.433-.258.63-.077.089.12.074.197.08.146.01.1.095.064.165-.055.108-.106.228-.189.308-.07.068-.116.127-.066.207.066.106.159.067.248.015.204-.118.326-.275.301-.537-.038-.415-.06-.833-.095-1.25-.019-.227.06-.404.281-.427.154-.016.135-.159.215-.203.091-.05-.024-.289.144-.196.079.044.27.084.197.342-.072.26.04.623.4.533.303-.076.364.255.59.241l.054.06c-.032.075-.066.15-.095.227-.072.189-.11.401.018.556.11.131.275.004.415-.028.037-.008.079.004.154.046-.472.02-.421.566-.773.744-.16.081-.068.387.01.579.1.246.225-.028.305-.001.5.165.583-.355.858-.548.13-.091.23-.13.36-.06.142.077.18.199.107.35-.11.228-.04.292.191.407.284.14.382.493.356.838a.568.568 0 01-.076.236c-.187.316-.215.568.208.692.083.024.158.104.19.242-.171.09-.387.129-.504-.013-.252-.31-.368-.088-.481.097-.097.16-.313.249-.283.486l-.052-.01.011.05.034-.05c.246.211.084.356-.071.513-.145.146-.424.243-.196.546.096.129.22.168.3.057.297-.414.811-.355 1.179-.61.087-.06.205-.08.282-.149.071-.064.083-.25.215-.176.13.073-.004.22-.028.301-.128.444-.514.605-.884.768-.09.04-.237 0-.178.187.053.169.164.075.262.069.19-.011.36-.26.567-.054l-.003.002c-.314.301.19.251.156.46-.233.079-.43.26-.63.444-.195.18-.26.378-.156.615.108.247.313-.026.46.092-.318.502-.592 1.038-.545 1.691.015.203-.106.37-.246.506-.395.38-.79.758-1.192 1.128a.681.681 0 00-.242.582c.058 1.239.104 2.479.146 3.719.007.215.01.354.283.234.142-.063.317-.05.478-.058 1.554-.081 3.109-.062 4.666.003l-3.374.215.005.113 3.416.148-.004.103-2.193.119c-.034-.153.125-.048.129-.173h-1.143c-.753-.024-1.51-.205-2.255.064H47.9l.639.032c-.017.138-.142.12-.203.192.162.08.365-.023.567.154-.28.093-.517.055-.744.03-.742-.085-1.48-.01-2.22.036-.288.018-.649.645-.538.908.05.121.162.087.245.089.73.012 1.448.094 2.192-.083a6.009 6.009 0 011.653-.154l-.521-.142c2.572-.428 5.153.026 7.72-.133 2.544-.158 5.033.472 7.633.384-.205.253-.452.14-.64.263 1.404.237 2.82.14 4.19.503-.138.071-.288.046-.432.043-2.654-.066-5.31-.092-7.96-.277-1.719-.12-3.432-.318-5.158-.281-.131.003-.27-.034-.463.085.896.262 1.777.003 2.613.26l-.452.055.001.038c1.684.06 3.368.112 5.05.18 2.721.11 5.442.222 8.161.351.413.02.82.147 1.234.194.281.033.565.177.857-.028.11-.077.168.176.342.165.483-.03.966.012 1.453-.019.406-.025.828.04 1.23.133 1.057.243 2.13.32 3.205.375.888.047 1.761.259 2.641.283 1.455.039 2.86.603 4.334.395.285-.04.537.152.842.153 1.06.006 2.114-.074 3.17-.117.118-.005.242-.045.291-.21-.097-.127-.24-.062-.36-.068-1.036-.044-2.077.048-3.11-.102-.226-.033-.598.085-.623-.28-.022-.334.364-.177.53-.3.556-.413 1.115-.15 1.68-.048.37.068.747.11 1.122.142.256.02.522.076.72-.208.06-.088.248-.12.375-.114.84.034 1.653-.209 2.487-.25.638-.033 1.251-.172 1.718-.7.194-.22.472-.266.749-.209 1.122.232 2.248.437 3.387.563.096.01.303-.048.176.209-.058.116.081.117.148.12 1.144.066 2.265.321 3.403.433l-.01-.009c.266.102.531.161.81.03.084-.04.28-.154.128.126-.024.045.187.1.282.071.832-.253 1.722-.064 2.547-.381.277-.107.56-.194.814-.354 1.928-1.213 3.994-1.525 6.212-1.148 1.237.21 2.457.482 3.678.76.518.118 1.017.01 1.525-.034.448-.039.608.09.597.549-.013.497.111.985.004 1.494-.1.477.241.883.711.989.191.043.38.094.6.15-.226.25-.456.175-.632.074-.312-.18-.367.01-.423.248-.145.614-.147 1.243-.194 1.868-.025.333-.032.674-.112.994-.065.256-.02.398.2.503.073.035.14.085.208.128.096.06.185.137.178.259-.01.171-.158.113-.252.13-.683.128-.79.335-.435.948.199.345.235.675.168 1.072-.085.504-.337.935-.477 1.412-.067.227-.25.383-.51.419-.535.074-1.047.216-1.518.515-.343.218-.729.136-1.098.032-.636-.177-1.278-.334-1.905-.541-.442-.147-.789.046-1.143.244-.071.04-.127.114-.205.061-.104-.069-.026-.102.024-.175.07-.104-.064-.073-.109-.078-.328-.037-.629.06-.913.223.068.266.438.133.543.508-.439-.234-.903.168-1.276-.276-.049-.058-.313-.294-.392.07-.003.016-.168.03-.226-.006-.33-.215-.636.03-.953.037-.226.005-.375.08-.167.401-.383-.499-.888-.403-1.33-.396-.595.01-1.163-.171-1.765-.177-.638-.005-1.348.083-1.947-.165-.378-.156-.741-.071-1.094-.191-.097-.033-.214.003-.322.003-.225.001-.327.198-.323.35.006.22.194.013.272.052.483.246 1.002.133 1.504.183.494.05.985-.007 1.477-.044.131-.01.265-.035.4.097-.12.026-.158.226-.32.075-.12-.113-.257-.036-.38.013-.128.05-.301.071-.23.301.077.247.186.021.276.023.421.01.842.005 1.265.057-.245.205-.537.062-.904.193.3.026.496.069.688.055.682-.05 1.344.122 2 .237 1.217.213 2.445.297 3.667.438 1.332.155 2.664-.02 3.994-.14.062-.005.12-.053.225-.102-.455-.334-.995-.385-1.474-.65.777-.182 1.498-.02 2.044.467.204.182.428.215.675.214.618-.002 1.207.097 1.7.532.139.123.32.137.513.174-.387.067-.338.398-.407.657-.014.052.011.065.043.09.185.14 1.164.108 1.403-.052-.125-.109-.288-.022-.417-.094.323-.22.616-.16.902.14.124.131.332.141.496.127.312-.027.429.158.527.406.086.218.023.326-.19.407-.145.055-.346-.006-.425.246-.043.14-.173-.01-.234-.08-.08-.093-.171-.16-.279-.102-.1.054-.052.176-.044.267.05.616.053.615-.532.703-.186.028-.373.056-.558.088-.036.007-.07.035-.12.062.52.192 1.056.096 1.567.202.092.019.197-.134.242.135.026.155.329.047.391-.25.046.215.06.42.313.29l-.01-.007c.142.365-.213.52-.311.783l-.491.211c.297.05.45-.01.584-.13.564-.126 1.03-.496 1.578-.668.314-.099.43.174.616.294.158.1.002.238-.071.349-.116.175-.024.34.023.511.091.338-.025.506-.319.397-.496-.184-.973.05-1.46-.002-.207-.023-.097.303-.3.356-.043.01-.178.214-.25.418.235-.045.452.162.644-.055.094-.106-.055-.173-.137-.264.287-.07.55-.173.893-.094-.375.47-.892.64-1.34.915-.022.014-.093-.01-.105-.033-.073-.159-.167-.28-.327-.12-.143.141-.332.29-.17.543a25.8 25.8 0 01-.054-.05l.052.05c.082-.193.17-.341.429-.246.113.042.262-.013.394-.035.184-.032.366-.088.552-.106.215-.02.51-.008.517.244.005.223-.29.183-.468.17-.204-.015-.38.08-.59.095.552.23.975.128 1.373-.297.137-.147.291-.282.455-.395.224-.156.49.033.551.386.062.353.074.732.484.878v.168c-.482.014-.524.435-.647.769-.056.153-.064.326-.092.49-.035.205-.138.315-.353.32-.213.005-.427.039-.64.062-.365.041-.56.233-.523.632.005.054.005.154-.012.159-.448.123-.254.326-.078.546.046.057-.032.125-.092.159-.25.141-.518.22-.803.19-.427-.044-.86-.19-1.231.201-.044.046-.225-.13-.373-.078-1.26.44-2.607.331-3.888.65-.21.053-.295.127-.178.34l.007-.006c-.486.205-1.012.368-1.44.636-.251.158-.326.3-.57.076-.034-.03-.15.036-.228.054-.692.157-1.363.376-1.993.718-.105.057-.236.17-.33.06-.295-.345-.622-.116-.775.062-.271.314-.566.484-.948.546-.04.007-.07.073-.106.111-.045.005-.074.029-.05.075.005.008.062-.013.095-.02.327-.101.66-.126.998-.105.576.036.576.036 1-.483-.024.682.443.575.818.6.65.043 1.3.072 2.07.114-.268.151-.443.125-.608.13-.565.013-1.136-.033-1.694.039-.779.1-1.553.2-2.34.232-.306.013-.603.243-.932.027.051-.16.2-.063.276-.137-.01-.015-.018-.043-.032-.048-.76-.231-1.544-.178-2.321-.193-.064-.001-.144.005-.17.084-.04.125.085.111.139.154.124.098.256.188.302.362-.499.031-.536-.016-.454-.557-.023-.013-.047-.025-.067-.043-.004-.004 0-.033.008-.036.264-.14.397-.296.063-.515.217-.029.422-.053.515.238.014.044.217.305.271.068.052-.227.128-.138.252-.164.362-.078.833.345 1.094-.235-.369-.21-.792-.23-1.177-.362-.18-.062-.683-.56-.872.118-.002.006-.045.003-.068-.001-.095-.018-.238-.132-.26.043-.03.243.161.007.21.077.02.03-.016.1-.026.151-.155.143-.324.218-.484.026-.212-.253.035-.423.186-.674-.328.147-.579.29-.889.16-.111-.048-.174.148-.212.263-.043.13.042.127.133.111.06-.01.087.004.078.086-.028.259.067.352.356.348.239-.003.482-.06.71.086-.134.065-.14.156-.062.266l-.332-.012c-.056-.018-.084.003-.08.065-.022.01-.028.027-.016.05-.256-.023-.521-.022-.69-.279l-.06.062c.008.001.022.006.023.003.014-.02.025-.043.037-.065-.137.238.16.363.14.57-.77.11-1.542.05-2.313-.001-.003-.013-.011-.027-.008-.036.008-.021.022-.04.033-.059.461-.082.947.044 1.392-.175.06-.034.089-.01.115.05.076.182.206.187.282.03.035-.073.253-.062.116-.22-.119-.136-.23-.113-.327.03-.047.068-.09.143-.185.067-.147-.055-.076-.16-.067-.263.028-.317-.135-.494-.392-.662-.54-.355-.977-.108-1.43.176-.055.034-.141.016-.244.026.24.146.337.162.686.108-.086.124-.341.096-.218.345.038.075-.266.105-.418.126-.223.031-.092-.138-.094-.217-.005-.204-.122-.24-.213-.1-.124.19-.291.165-.455.187-.45.06-.857.336-1.353.212-.218-.055.079.326-.155.385.192.087.253.4.557.304.337-.104.686-.167 1.03-.244.037-.008.079.009.118.014.006.125-.192.034-.172.165 2.044-.046 4.071.118 6.099.335-.652-.067-1.265.235-1.926.168-.682-.07-1.377-.004-2.066.015-.69.019-1.386-.056-2.07.103.751.07 1.509-.02 2.247.226-1.825.09-3.656.004-5.492.188.134.034.267.07.401.101.364.085.767-.053 1.102.232.068.058.315.175.31-.142 0-.012.223-.029.343-.04.659-.067 1.276.207 1.923.258.897.07 1.801.077 2.685.237-.177.427-.472.424-.84.311-.227-.069-.48-.047-.722-.058-.092-.004-.219-.007-.23.116-.037.434-.362.127-.382.099-.3-.427-.716-.226-1.07-.2-.655.048-1.306.083-1.959 0-.31-.039-.616-.133-.924.031-.055.03-.176-.002-.229-.05-.204-.187-.45-.188-.687-.166-.703.065-1.4.008-2.099-.06-.076-.008-.135-.001-.152.085-.027.132-.139.152-.219.121-.63-.243-1.245-.115-1.86.062a.27.27 0 01-.117-.003c-1.274-.228-2.557-.175-3.828-.034-.722.08-1.443.162-2.167.208-.126.008-.346.115-.37-.1-.02-.173.226-.074.357-.198-.186-.088-.345.001-.5.003-.164.002-.284.357-.52.012-.083-.124-.484-.023-.74-.012-.082.003-.194-.027-.247.132l.769.044c-1.939.2-3.848.725-5.821.426h1.294c-.255-.275-.56-.201-.836-.183-.229.015-.26-.102-.343-.261-.067-.128-.032-.136.061-.147.066-.008.145-.018.2.012.519.28 1.042.13 1.566.029a.734.734 0 01.504.059c.227.115.347-.007.536-.232.102-.12.33-.125.527-.19-.266-.057-.522-.022-.754-.198-.167-.126-.4-.09-.586.094-.25.25-.595.286-.808.034-.324-.384-.672-.128-.963-.072-.152.03-.342.124-.523.137-1.183.09-2.371.031-3.556.116-.4.028-.788.386-1.15.185-.609-.337-1.194-.01-1.777-.074-.624-.067-1.235.14-1.851.019-.191.306-.549-.13-.744.176-.01.016-.076.007-.109-.007-.52-.234-1.065-.089-1.599-.11-.12-.004-.288.022-.349-.047-.193-.22-.328-.046-.43.061-.178.185-.365.189-.596.178-.737-.034-1.476-.09-2.208.083-.187.044-.389.11-.527-.15-.048-.09-.236-.264-.307.036-.016.068-.06.072-.12.07-2.328-.092-4.643.077-6.952.374-.15.02-.342.16-.412-.136-.015-.066-.12-.017-.18.002-1.055.332-2.159.282-3.235.446-1.103.168-2.204.355-3.317.441-.077.006-.203.03-.22.077-.152.425-.334.34-.542.053-.014-.02-.066-.038-.07-.034-.32.457-.877.08-1.251.382-.094.075-.154.093-.069.192.178.208.02.367-.05.582-.148-.19-.167-.379-.196-.567-.014-.092.135-.231-.05-.27a.325.325 0 00-.35.157c-.402.682-.027 1.534.73 1.681.034.007.061.047.106.083-.316.263-.696.08-1.033.164.496.307 1.038.268 1.56.335.52.067 1.04.13 1.56.25l-1.826.091c.069.217.278.156.372.318-.204.033-.395.07-.586.09-.223.025-.397.096-.4.386-.158-.139-.268-.404-.466-.291-.153.087-.146.38-.146.544.001.356.422.174.594.37-.02.096-.106.066-.146.054-.48-.149-.583.162-.613.542-.023.29-.06.579.049.867.114.303-.087.593-.063.904.062.82.1 1.643.132 2.465.017.428.003.857-.02 1.288-.268-.992-.155-2.03-.313-3.092-.172.55-.143 1.084-.22 1.598-.134.88-.18 1.775-.264 2.664-.035.375-.072.743.148 1.09.064.103.241.376-.171.31-.175-.028-.2.244-.171.398.072.388.064.77-.008 1.155-.016.085.426.736.5.718.226-.057.23.08.245.245.19 1.901.57 3.778.71 5.686.01.144-.031.317.176.37.093.024.085.089.016.144-.277.223-.13.533-.176.841-.232-.049-.493-.201-.698.132-.072.116-.233-.066-.34-.14-.54-.371-.693-.308-.797.356-.033.206-.03.417-.045.626-.01.138-.007.28-.14.37-.134.091-.27.179-.016.304.066.033.01.126-.013.187-.193.53-.307 1.062-.019 1.597.037.067-.003.097-.025.144-.176.368-.546.453-.86.6-.148.068-.263-.09-.31-.254-.095-.336-.14-.68-.187-1.053-.006.595-.427.943-.705 1.426-.134-.263-.005-.526-.182-.764l-.144 1.228c-.238-.217-.34-.475-.294-.73.064-.36-.062-.69-.069-1.036-.005-.257-.139-.394-.373-.399-.238-.004-.246.192-.279.38-.044.25-.113.497-.192.738-.047.142-.074.293.007.4.1.133.196.232-.01.328-.254.118-.17-.154-.247-.244-.142-.195.18-.47-.11-.665-.033.24-.062.455.02.67.18.557-.467.632-.585 1.026.031-.7-.029-1.42.445-2.017.032-.04.102-.067.07-.123-.067-.112-.04-.305-.205-.33-.275-.045-.57-.167-.825-.004-.126.08-.244.236-.116.483.105.204.067.487.093.74-.338-.053-.483-.239-.436-.613-.034.519-.597.59-.68 1.09-.21-.39-.334-.382-.529-.04-.067.119-.124.305-.271.257-.18-.058-.046-.233-.038-.358.04-.612.06-1.223-.06-1.844-.144.168-.144.168-.09.394-.756-.224-.888-.44-.883-1.251.003-.503.12-1.02-.12-1.51-.069-.139.152-.235.13-.432-.064-.553-.074-1.112-.096-1.67-.008-.205-.214-.498.22-.537.09-.008.056-.195.045-.305-.038-.396-.24-.735-.356-1.104-.051-.165-.22-.183-.38-.138-.076.022-.201.08-.223.053-.223-.282-.46-.542-.784-.701.193-.25-.121-.453-.054-.696-.186.222-.44.42-.174.75.021.026.008.08.015.122.038.215-.11.497.26.593.086.021.244.286.194.465-.643-.061-.494-.926-1.126-1.16.121.276.276.456.075.686-.052.06-.06.314.087.458.114.11.197.262.171.481-.415-.433-.392-1.122-.91-1.431.09-.157.19.032.276-.093-.156-.26-.327-.538-.689-.596a2.046 2.046 0 01-.043-.046c.235-.18-.055-.346.004-.555-.174.172-.26.604-.56.175-.035-.049-.126-.021-.179.039-.058.066-.033.125.003.188.26.468.519.937.75 1.422.153.321.2.621.091.982-.467-.226-.131-1.061-.846-1.101.323.005.291-.168.245-.366-.082-.35-.282-.106-.438-.078-.091-.16.028-.558-.37-.334-.108.06-.156-.165-.32-.176.226.829.66 1.558.854 2.386-.131.02-.119-.097-.14-.153-.347-.92-.83-1.772-1.224-2.668-.033-.075-.096-.149-.02-.224.073-.073.15-.037.203.036.038.051.129.129.121.064-.032-.273.497-.473.097-.776-.16.006-.004.348-.22.243-.216-.106-.016-.262.018-.395l.02-.1-.139.019c-.42.22-.42.22-.063.683-.492-.157-.378-.748-.838-.835.255-.19.389-.003.543.027.112.022.27.105.324-.041.063-.174-.037-.35-.117-.513-.084-.172-.146-.068-.23.01-.081.076-.18.048-.25-.032-.097-.11-.002-.191.07-.234.193-.117.11-.24.037-.38-.103-.199-.095-.201-.045-.61.004-.032-.074-.114-.098-.107-.242.068-.346-.263-.582-.211-.017.004-.07-.072-.068-.075.25-.288-.136-.456-.12-.712.145.019.27-.098.35.214a.923.923 0 00.818.683c-.022.21.244.459-.108.622.19.12.331.158.488-.011.105-.114.243-.203.414-.189.032.245-.165.388-.243.584-.04.005-.086.024-.052.066.033.04.064-.004.083-.04.166-.055.358-.046.482-.216.014-.02.138.045.122-.072-.008-.06-.063-.114-.097-.17-.213.21-.17-.175-.306-.142-.256-.114-.298-.616-.722-.428.057-.238-.048-.327-.269-.319-.067.003-.14-.02-.127-.115.004-.03.044-.075.07-.077.21-.014.403-.097.32-.34-.07-.204-.28-.041-.428-.05l-.118-.006c.163-.6-.136-.848-.96-.798-.015.141.207.195.113.384-.093-.057-.198-.104-.28-.178-.07-.063-.272.083-.225-.176.049-.262.25-.197.413-.227-.044-.171-.222-.157-.266-.255-.097-.218-.592-.262-.277-.676.045-.058-.046-.227-.071-.333-.165-.013-.078.287-.26.195-.18-.09-.056-.19.021-.282.01-.012-.003-.071-.013-.073-.507-.102-.538-.707-.898-.92-.228-.135-.509-.135-.492-.502-.308.004-.193-.16-.159-.342.014-.073-.053-.243-.22-.305-.242-.09-.389-.334-.576-.513-.164-.157-.134-.305.013-.452.09-.112.13.006.18.046.272.217.516.452.644.8.098.264.31-.024.469.072.076.046.12-.118.088-.178-.124-.23-.114-.557-.5-.593-.275-.026-.604-.187-.643-.486-.079-.609-.572-.69-.944-.942.122.216.124.465.35.657.141.121.321.369.36.629a1.095 1.095 0 01-.478-.19c-.095-.215-.15-.467-.437-.504-.085-.011-.124-.051-.065-.129.037-.049.133-.063.09-.155-.053-.114-.14-.012-.208-.026-.185-.036-.426-.221-.31-.32.2-.17.003-.243-.003-.338-.01-.173-.123-.087-.23-.056-.099.028-.2-.04-.302-.114-.319-.229-.43-.718-.909-.773.147.394.115.91.813.866-.192.13-.306.207-.225.378.088.184.186.044.288.038.106-.007.273.06.257.151-.061.348.18.443.387.578.056.037.137.082.107.156-.2.5.343.356.48.567l-.23-.411.449.151c-.12.563-.26 1.129.248 1.586l-.069.06c-.337-.002-.361-.513-.736-.485-.054.004.216-.101.053-.281-1.072-1.187-1.913-2.573-2.955-3.778-.806-.933-1.708-1.806-2.821-2.38-.048-.025-.092-.065-.142-.077-.182-.047-.353-.378-.48-.208-.1.133.199.346.338.491.765.795 1.427 1.682 2.156 2.51a.229.229 0 00-.044.06c-.182-.05-.344-.13-.441-.31-.01-.088-.048-.156-.14-.155-.01 0-.02.1-.03.153-.15.352.182.506.308.728.178.315.446.584.676.857.367.435.512 1.047 1.02 1.359.136.765.766 1.168 1.186 1.724.06.08.148.161.044.241-.135.105-.126-.077-.184-.128-1.524-1.346-2.603-3.087-3.872-4.659-.27-.334-.611-.586-.935-.857-1.067-.893-2.19-1.707-3.315-2.517-.198-.142-.38-.31-.568-.465l.08-.068c1.02.634 1.971 1.375 2.95 2.074.108.078.221.15.332.225l.125.113.108.094c.04-.07.03-.12-.052-.144l-.102-.13c-.787-.895-1.568-1.797-2.364-2.683-.424-.473-.947-.817-1.488-1.132-.876-.51-1.754-1.02-2.63-1.532-.16-.094-.334-.175-.47-.366.343.007.589.207.862.322.149.063.26.228.451.171l-.01-.012c.017.112.06.17.172.09l-.01-.006c.01.126.06.172.171.09l-.01-.005c.118.274.407.295.615.433.258.172.537.31.806.463l.108.042c.048.058.112.145.174.058.036-.052-.072-.085-.119-.123l-.1-.056c-.11-.098-.225-.192-.33-.296-.082-.08-.153-.198-.075-.294.087-.108.217-.09.315.018.11.121.196.276.325.364.332.224.433.655.755.871.095.064.226.402.398.03.04-.086.15.043.208.114.15.186.284.392.61.51-.193-.506-.61-.717-.842-1.077l.087-.068zm17.753 17.557c.05.024.101.077.144-.009a.182.182 0 00-.036.192c.038.104.087.216.198.235.064.011.095-.078.107-.152.028-.166-.058-.222-.197-.235-.025-.003-.049-.021-.074-.03-.05-.003-.103-.049-.15.01l.005-.041.009.003c-.003.01-.006.02-.006.027zm-11.1-12.632l.003.004-.12-.053c-.1-.247.02-.21.183-.166.126.033.239-.041.303-.154.04-.071-.033-.165-.081-.163-.284.015-.252-.22-.303-.387-.07-.23-.17-.383-.433-.241-.04.02-.107.024-.105.032-.047-.276.222-.13.207-.305-.108-.188-.464 0-.464-.232 0-.677-.874-.756-.862-1.42.002-.059-.073-.052-.128-.058-.23-.027-.494-.167-.532-.338-.083-.37-.268-.374-.601-.315.227.26.411.496.62.705.113.114.074.39.279.363.28-.037.341.264.345.336.013.255.106.381.331.422.068.012.068.037.082.099.083.368.261.638.727.583-.225.181-.392.348-.637.149-.042-.034-.177-.044-.213.046-.046.116.061.19.14.219.105.039.14.102.205.191.232.325.548.55.945.626.007.029-.052.075.016.084.03.004.062-.017.093-.027zm10.958-47.372c.102.09.136-.001.176-.073.25-.117.353-.343.417-.596l-.015-.006.008.016c-.157.172-.467.202-.457.528-.05.036-.125.05-.118.137l-.048.05.054.005-.017-.061zM15.621 39.467c.016.147-.22.145-.162.35.204-.134.384-.293.635-.345-.145-.15-.298.112-.4-.08-.09-.23.04-.426.122-.637-.386.018-.337.352-.418.56-.047.122.12.141.223.152zm3.15 24.129l-.019-.278c-.024.094-.158.21.026.27.149.418.357.803.618 1.156l.066-.045-.041-.023-.022.074c.142-.231-.212-.446-.022-.68-.34.03-.305-.452-.607-.474zm-.316 3.76c-.074-.257-.177-.486-.5-.571.132.264.296.442.457.622.299.33.487.773.922.963.094.402.386.672.626.971.27.333.569.64.855.958.09.102.171.092.274.004.083-.07.039-.11-.005-.16-.443-.516-.89-1.028-1.328-1.548a.602.602 0 00-.433-.214c-.056-.553-.52-.737-.868-1.025zm9.335-38.705l-.077-.1c.024-.066.052-.16-.062-.112-.204.084-.232.321-.337.489-.058.092.068.133.136.14.237.028.357-.186.52-.303.05-.036.04-.131-.063-.132-.039 0-.078.012-.117.018zm-12.543 11.51c-.37.269-.579.637-.678 1.108.179-.04.241-.126.257-.27.014-.126.06-.231.207-.27.236-.064.29-.257.274-.484.138-.03.304-.01.348-.238-.185-.075-.299.033-.408.155zm12.87-14.721l.064.074c-.102.342-.611.274-.676.717.338-.088.536-.317.734-.53.085-.093.315-.24.161-.337-.132-.084-.337-.459-.573-.079-.059.096-.15.172-.246.279.22.016.386-.02.536-.124zm62.948 18.333l-.008-.002c-.004.023-.01.047-.01.07 0 .008.02.023.028.022.276-.045.545-.144.825.04.068.044.317.122.349-.103.037-.265-.16-.094-.248-.132-.42-.18-.846-.047-1.264-.085-.062-.006-.22-.11-.216.085.001.064-.134.097-.042.149.093.052.2.039.307-.018.08-.042.17-.23.28-.026zm-78.98 13.682c-.055-.216-.139-.388-.467-.263.205.066.293.2.385.33.038.162.05.318-.092.467-.198-.293-.491-.318-.889-.36.389.402.588.875 1.024 1.093.206.103.17.442.353.415.276-.04.39.146.539.279.35.313.68.65 1.037.996.059-.213-.035-.33-.113-.46-.233-.39-.626-.63-.881-.988-.177-.249-.823-.288-.424-.854.017-.024-.048-.123-.089-.176-.124-.162-.255-.32-.383-.479zM99.119 45.08l-.01.06c.017-.004.034-.008.051-.01l-.051-.043c-.022-.11-.014-.294-.07-.32-.252-.11-.543-.098-.766-.318-.066-.065-.234-.021-.355-.023-1.03-.016-2.06-.143-3.092.112 1.407.354 2.854.42 4.293.542zM9.8 56.193v.024l.011-.02c-.037.375.275.512.464.755-.092-.316.024-.38.271-.277.111.047.211.121.317.182.195.112.409-.01.512-.097.117-.1-.04-.303-.156-.413-.147-.138-.274-.35-.476-.359-.105-.004-.152.019-.145-.095.023-.341-.005-.66-.245-.932-.116-.132.16-.136.124-.263-.148-.046-.246.036-.271.133-.058.225-.129.417-.379.469-.02.004-.036.036-.054.055.188.101.145.243-.011.27-.123.022-.099-.19-.16-.286-.038-.06-.04-.19-.15-.146-.105.043-.225.104-.282.195-.047.075.046.221.12.231.275.038.307.382.56.446.055.013.108.142-.05.128zm104.458 1.837c0-.024.083-.021.02-.066l-.02.065c.1.063.093.156-.015.147-.183-.015-.375.002-.547-.109a1.13 1.13 0 00-.64-.181c-.068.001-.218.005-.168.11.173.36-.09.317-.216.218-.425-.336-.655-.019-.89.25-.095.109-.275.252-.03.438.112.085.306.305-.066.344-.143.015-.124.118-.118.214.007.118.12.22.178.177.228-.173.687.045.72-.451.008-.121.1-.107.18-.11.15-.006.061.102.077.166.045.185.084.308.316.13a.939.939 0 01.8-.194c-.301-.175-.526-.019-.797-.161 1.88-.336 3.748-.433 5.418-1.405h-3.32c-.038.092.052.141.085.211.083.18.123.405-.059.478-.167.067-.251-.156-.31-.313a.352.352 0 01-.025-.122c.002-.266-.151-.23-.323-.198.058.1.155.193.139.255-.033.125-.16.03-.244.048-.05.01-.097.04-.145.06zm-60.874 6.603c-.49.171-.986.21-1.498.248.126.08.202.34.304.264.266-.198.55-.071.814-.14.435-.112.897-.242 1.314-.136.437.11.719-.644 1.156-.15.017-.02.042-.037.048-.06.06-.23.24-.137.37-.14 1.548-.037 3.092-.155 4.636-.279.148-.012.358.04.414-.236-.192.015-.363.038-.534.04-.953.012-1.904-.055-2.859.008-.315.02-.59.234-.929.132-.431-.13-.878-.07-1.323-.048-.4.02-.766.21-1.145.237-.574.039-1.155-.056-1.733-.08-.77-.033-1.542-.087-2.3.13-.078.023-.168.014-.168.13 0 .102.063.148.156.15.094 0 .188-.007.282-.011.993-.052 1.984-.18 2.995-.06zm64.794-12.18c-.089.154-.31-.008-.297.197.01.146.165.162.288.168.12.005.232.009.35.062.407.185.835-.01 1.128-.188a4.876 4.876 0 011.101-.498c.258-.08.556-.089.682-.422.042-.112.163-.132.266-.03.08.081.163.099.232-.013.052-.083.098-.17.071-.274-.034-.128-.152-.123-.232-.11-.456.071-.975-.047-1.305.433-.036.054-.09.06-.141.04-.261-.107-.345.114-.455.273a.257.257 0 01-.125-.214c-.02-.352-.225-.444-.521-.368-.181.047-.378.089-.526.195-.189.134-.378.158-.593.185-.24.03-.524.018-.704.266.262.16.663-.15.78.297zM81.814 38.804c1.863.28 3.714.685 5.61.594-1.842-.518-3.72-.627-5.61-.594zM14.351 57.853c.197.59.224.628.568.913.034.029.047.093.059.143.083.343.349.528.622.637.407.163.52.013.494-.438-.016-.286-.21-.38-.368-.525-.38-.35-.823-.571-1.375-.73zM9.3 54.767c-.003-.17.098-.28.199-.36.222-.175.04-.348-.052-.38-.26-.095-.566-.213-.814-.15-.277.07-.287-.015-.319-.226-.04-.275-.191-.411-.491-.334.161.569.66.894.864 1.432.212.557.278.536.741.197.078-.057.228-.034.232-.17-.131-.23-.215.106-.36-.009zm80.515-20.122c-.069.033-.324-.121-.3.103.038.355-.197.363-.39.44-.053.022-.137-.027-.14.08-.001.097.069.194.14.162.242-.105.484-.047.727-.046.51.004.993-.31 1.524-.138.121.04.216-.09.255-.215.04-.125-.081-.141-.138-.142-.554-.008-1.067-.29-1.678-.244zm10.412 1.351c-.152-.132-.213-.22-.294-.25-.673-.248-1.374-.209-2.07-.201-.152.001-.028.249-.18.285.026.079.054.16.144.179.767.157 1.534.21 2.4-.013zm-26.456.018c-.31-.1-.625-.03-.922-.133-.751-.26-1.53-.266-2.308-.262-.105.001-.261-.022-.277.105-.02.169.155.165.264.18 1.08.157 2.165.155 3.243.11zm7.36-.529c-1.136-.162-2.27-.323-3.459-.378.532.428 1.13.322 1.675.402a5.314 5.314 0 001.784-.024zm25.843 24.749c.107.07.126.089.15.097.444.159.836.783 1.373.155.056-.066.223-.042.286.06.071.116.06.135.142.08.113-.076.216-.165.356-.272-.767-.131-1.48-.24-2.307-.12zM88.76 63.699c-.044-.241-.236-.21-.406-.216-.2-.006-.4-.007-.601-.01-.85-.013-1.699-.027-2.548-.038-.057 0-.101.028-.099.142 1.208.037 2.414.152 3.654.122zM28.749 22.684c-.059.19.069.273.175.197.162-.118.337-.291.389-.477.053-.189-.01-.24.116-.24.238-.002.275-.186.349-.344.04-.086.076-.174.115-.26.029-.062.24.091.139-.117-.092-.187-.202-.043-.276.02-.25.212-.477.453-.733.656-.19.152-.256.345-.274.565zm83.483 30.6c.41.026.719.063 1.004.182.188.079.5-.193.57.213l.039-.012.942-.267c-.283-.17-2.242-.283-2.555-.116zM32.92 19.614c-.329.393-.695.78-.9 1.324.793-.564 1.186-1.22 1.041-1.707-.172.067-.335.148-.447.307.091.145.202-.081.306.076zm4.996-7.159c.33-.157.44-.453.469-.798.009-.108.018-.223-.122-.268-.145-.047-.237.023-.295.14-.147.294-.261.595-.052.926zM45.74 73.63c.065.713-.13 1.426.02 2.134.115-.713.203-1.426-.02-2.134zm22.516-37.96c.6.197 1.122.06 1.609.206.072.022.184-.047.197-.165.007-.073-.056-.085-.108-.092-.528-.067-1.056-.118-1.698.05zm27.468 9.595c-.374-.06-.704-.116-1.035-.164-.16-.024-.32-.031-.48-.047-.077-.007-.168-.044-.181.085-.006.052-.016.122.01.153.025.028.124.038.14.017.17-.242.31-.03.475.01.34.082.697.268 1.071-.054zM31.421 19.742c-.19-.091-.242.076-.34.127-.145.076-.182-.131-.318-.098-.171.042-.51.418-.446.557.024.054.135.2.215.102.242-.296.703-.282.89-.688zm46.926 15.97c.555.124 1.106.409 1.676.094-.556-.127-1.122.057-1.676-.093zm14.469 8.84h1.513c-.28-.327-.743-.355-1.513 0zM29.362 22.854c.56.383.634-.3.969-.409-.6-.485-.606.35-.969.409zm80.114 30.518c-.454-.188-.912-.306-1.4-.025.48.126.934.19 1.4.025zm-15.61-9.488c-.16-.319-.431.082-.613-.123-.293-.332-.539-.17-.813.056.498.052.965.144 1.426.067zM14.58 57.439c-.02-.14-.044-.276-.06-.413-.009-.079-.034-.134-.12-.128-.076.006-.16.084-.142.12.105.214-.013.216-.16.21-.075-.002-.136.024-.12.12.014.074.052.145.134.094.13-.082.114.015.138.095.036.12.136.187.247.154.114-.034.057-.167.083-.252zm86.72 3.468c-.35-.051-.672.115-.975-.069-.05-.03-.145.018-.219.03.265.07-.049.382.175.462.353.126.745-.03 1.02-.423zm-13.457-.013c.458.244.882-.06 1.415-.078-.377.278-.49-.088-.708-.122-.283-.045-.489.047-.707.2zM46.744 85.282c-.256.497-.22.721.164 1.118-.08-.366.013-.737-.164-1.118zM31.046 27.315c-.345.31-.707.614-.903 1.07.254-.4.758-.56.903-1.07zM11.768 43.996c-.262.068-.505.176-.5.456.001.123.102.398.431.339-.501-.357.133-.48.069-.795zm34.046 33.622c0-.425.001-.85-.001-1.273 0-.076.025-.184-.097-.181-.039 0-.113.067-.109.094.06.452-.061.927.207 1.36zM18.634 64.33l-.182-.236c-.057-.076-.122-.147-.167-.23-.073-.134-.124-.29-.322-.202-.023.01-.054.028-.059.048-.042.171.151.117.19.211.01.021.004.048.01.072.053.241.195.341.53.337zm11.527-44.628c-.098.285-.388.353-.55.57-.09.12-.086.193-.011.276.1.11.215.033.261-.054.13-.245.362-.445.3-.792zm70.16 25.266c-.136-.193-.371-.056-.482-.212-.079-.11-.083-.136-.15-.058-.056.065-.217.013-.178.173.476.262.476.262.81.097zM87.086 60.737c-.348-.066-.673.078-1.02.076.38.365.683-.011 1.02-.076zm4.196 2.767c.255.276.56.06.751.26.055.057.124.11.201.02.135-.156-.192-.148-.098-.309.053-.088-.053-.129-.104-.089-.205.16-.439.168-.75.118zm-65.976 7.524c-.053-.247-.232-.308-.41-.371-.076-.027.06-.197-.091-.155-.045.013-.083.109-.095.173-.018.094.422.461.519.447.072-.01.076-.062.077-.094zm8.103-51.596c.27-.113.445-.297.562-.531.033-.067.045-.17-.05-.213-.071-.032-.134.013-.167.075-.118.221-.23.446-.345.67zm-6.85 8.672a.728.728 0 00-.596.113c-.063.042-.167.091-.13.179.025.058.125.099.198.114.302.061.354-.223.528-.406zm65.547 16.93c.293.21.581.263.895.007-.325-.273-.61.067-.895-.008zm3.065 18.877c-.376-.19-.76-.172-1.145-.119l-.002.119h1.147zm-48.616 18.9c-.022-.243-.04-.487-.07-.729-.007-.063-.043-.137-.126-.131-.093.006-.065.095-.088.153-.118.306.075.506.284.707zM28.812 24.083c.242.205.405.021.557-.066.058-.033.017-.227-.091-.277-.371-.169-.196.357-.466.343zm74.872 37.102l.096-.305c.046-.147-.018-.248-.146-.288-.164-.05-.301.032-.358.184-.08.214.115.127.188.14.162.026.019.256.22.27zM33.72 18.314c.321.084.402-.301.654-.226.093.028.162.002.2-.084.011-.025-.009-.083-.033-.105a.186.186 0 00-.226-.017c-.189.122-.366.263-.595.432zm14.353 47.135c.306.008.613.035.896-.144-.299.044-.611-.023-.896.144zm-19.636 9.776l.07-.03c-.22-.224.014-.327.113-.47a.2.2 0 00-.08-.072c-.134-.039-.227.051-.324.121-.078.056-.098.13-.047.213a.525.525 0 00.268.238zm68.347-13.42c.24.244.496.346.846.053l-.846-.054zM37.07 15.544c.466-.125.603-.379.584-.789l-.584.789zm-4.615 3.927c-.432.182-.583.413-.44.703.041-.313.388-.39.44-.703zm65.387 42.873c.332.277.635.307.84.076-.274-.126-.555-.07-.84-.076zM29.506 29.803c-.208.267-.444.11-.607.264.287.326.456.227.607-.264zm9.05 61.573c-.115.386.132.582.183.842.158-.315-.014-.538-.183-.842zm79.929-42.098c.304.103.54.082.774.042.044-.007.111-.035.087-.108-.011-.032-.052-.053-.079-.079-.208.237-.494-.082-.782.145zM30.789 21.163c-.256.104-.116.442-.32.58-.005.005.015.075.039.096.04.035.12.066.135.004.053-.226.335-.403.146-.68zm-4.288 9.04c-.264.148-.458.266-.525.561.186-.172.514-.131.525-.56zm92.706 27.451c.23.359.23.359.582.074-.185-.128-.38-.073-.582-.074zm-19.12-22.693c.092.222.381.09.476.3.013.028.154-.028.185-.109.037-.093-.048-.102-.107-.128a.92.92 0 00-.553-.063zm-7.35 28.813c.263.079.531.197.902 0h-.902zm25.273-7.496c-.258-.042-.52-.125-.78.068.303.234.53-.03.78-.068zm-4.764-1.25c-.039-.562-.388-.055-.533-.194.148.13.32.181.533.194zM46.515 21.397c-.112.125-.205.252-.351.323-.053.026-.066.092-.037.142.015.026.095.045.096.043.082-.18.36-.23.292-.508zM60.924 32.85c-.23-.213-.503-.146-.774-.103l.774.103zM44.705 91.307c.069-.199.128-.398.058-.62-.126.206-.096.412-.058.62zm-27.189-28.42c-.05-.077-.088-.149-.138-.209-.07-.084-.15-.165-.27-.093-.043.026-.113.076-.108.102.025.126.148.133.24.176.071.033.14.082.276.025zm73.895.976c-.195-.042-.389-.162-.635-.019.243.09.439.083.635.02zM16.18 60.46c.239.112.406.201.605.085-.162-.255-.36-.16-.605-.085zm67.062-24.582l-.77-.05c.253.18.513.13.77.05zm13.446 25.97a.696.696 0 00-.607-.058c-.009.003-.012.082.005.11.128.215.287-.086.428.022.016.012.067-.027.174-.074zM36.72 16.9c-.017-.086-.08-.117-.149-.093-.092.032-.23.004-.245.16-.007.076.015.152.104.135.12-.024.23-.08.29-.202zm10.031 67.923c.002-.331-.046-.57-.211-.84-.028.326.047.556.211.84zm36.582-20.991l.641-.091c-.22-.02-.45-.113-.64.09zM3.577 54.004l.025.014.003-.021-.028.007zm105.031-.438c-.004.008-.014.018-.012.022.004.01.015.017.023.025l.014-.046-.025-.001zM38.917 95c.016-.293-.068-.595.077-.881.04.293.162.575.085.88h-.162z"/><path class="st0" d="M27.216 24.303c-.255-.014-.307.23-.356.38-.042.133-.146.22-.175.369-.09-.154.02-.4-.211-.465-.184-.052-.377-.028-.559-.057-.242-.04-.194.26-.358.27-.143.01-.148-.001-.147.324 0 .206-.098.333-.262.432-.52.313-1.033.634-1.294 1.243-.071.166-.213.272-.442.301.497-.972 1.495-1.59 1.622-2.773-.505.147-.506.867-1.114.936.37-.474.512-1.02.904-1.404-.067-.143-.2.018-.293-.094.391-.514.721-1.095 1.269-1.477.095-.067.212-.074.26-.222.054-.16.25-.132.298-.05.173.287.274.034.39-.055.079.136-.011.231-.02.334-.02.025-.04.05-.058.075-.212.125-.505-.011-.682.229.337.273.608.178.67-.234.11.135.147.008.2-.06.523-.49 1.088-.923 1.738-1.374-.09.413-.231.741-.265 1.095-.009.096-.136.076-.19.122-.148.13-.55.03-.4.45.007.018-.063.09-.105.099-.082.017-.118-.047-.12-.125-.004-.12-.002-.24-.002-.436-.4.394-.722.733-.929 1.203-.086.194-.334.343-.486.536-.092.118-.224.236-.055.384.112.098.25.213.298-.068.005-.03.076.005.118.015.156.04.331.159.483-.008.188-.207.18.058.26.109a.116.116 0 01.013-.004zM23.494 76.205c.029.146.155.26.121.492a6.491 6.491 0 01-1.652-1.894c.038-.08.082-.05.128-.026a.311.311 0 00.166.044c-.86-1.375-1.934-2.599-2.652-4.068l.066-.05c.355.177.529.555.729.852.597.886 1.415 1.57 2.008 2.455.666.993 1.437 1.907 2.061 2.933.069.112.183.212.099.38-.313-.422-.628-.832-1.007-1.185-.036-.076-.091-.077-.156-.042l.09.11zM36.688 13.194c.264.304.366.304.614-.02.014.284-.072.386-.342.447-.299.067-.784-.019-.733.573.004.039-.056.112-.098.122-.54.14-.529.74-.838 1.072-.21.227.142.368.113.575l.007.012c-.219-.13-.344-.388-.636-.445.318-.198.456-.434.356-.781-.03-.102-.07-.21.028-.308.186-.187.22-.444.255-.686.053-.369.224-.61.57-.718.21-.066.372-.214.55-.357.07.206-.091.334-.126.497-.037.006-.075.018-.048.063.007.011.06-.009.093-.015.075-.03.148-.076.229-.016l.006-.015zM107.508 64.26c.1.193.279.16.422.118.491-.142.976-.144 1.475-.046.238.047.51.093.64-.242.024-.064.111-.118.211-.097.091.365-.014.56-.412.532-.372-.025-.749.058-1.115-.065-.034-.011-.085-.011-.114.007-.938.6-1.94.233-2.919.206a.396.396 0 01-.26-.094c-.028-.025-.091-.052-.106-.038-.031.027-.008.046.015.007.018-.03.03-.077.02-.108-.014-.048-.041-.108-.08-.13-.087-.047-.295.076-.252-.14.032-.166.227-.18.373-.19.129-.01.26.016.4.027-.032.179-.16.225-.264.238-.174.022-.139.148-.12.233.032.14.18.168.259.1.376-.326.79-.302 1.24-.24.182.025.358-.322.595-.073l-.008-.005zM118.757 61.24c-.578.008-1.073.03-1.592-.06.104.145.11.275-.034.32-.25.079-.51.143-.77.165-.083.008-.27-.071-.259-.212.034-.413-.24-.548-.52-.694-.028-.014-.04-.061-.072-.117 1.135-.204 2.18-.006 3.247.598zM36.4 85.045c.44.436.376 1.003.294 1.497-.045.268-.116.548-.132.828-.013.225-.076.051-.137.04-.137-.025-.085.103-.104.169-.042.153-.016.331-.165.472-.121-.094-.112-.227-.092-.337.13-.714-.203-1.252-.609-1.766-.092-.117-.213-.224-.173-.401.013-.061.08-.115.113-.073.106.138.299.195.338.392.042.21.029.443.228.599.144-.178.026-.367.074-.535l.015-.027.012.04c.022.078.13.181.13.109 0-.228.435-.14.265-.34-.21-.25.08-.451-.056-.667zM40.303 5.756c.017-.333-.012-.666.036-1.001.04-.283.161-.275.35-.163.195.116.272.297.284.52.029.562-.206 1.078-.256 1.625-.01.118-.079.165-.192.162-.15-.003-.17-.102-.176-.224-.014-.306-.03-.612-.046-.919zM104.32 64.605c-.258.314-.243.367.145.463.472.117.958.104 1.435.19-1.21 0-2.421.016-3.618-.31.183-.05.297-.504.572-.057.063.101.25.023.384-.003.363-.072.692-.295 1.078-.266l.005-.017zM25.448 80.583c-.556-.729-1.26-1.341-1.569-2.246-.07-.206-.173.006-.251-.048-.067-.046-.12-.167-.22-.568.532.288 1.916 2.193 2.04 2.862zM25.326 27.588c-.205-.14-.35.005-.549.152.05-.195.12-.368-.038-.489-.063-.048-.14-.124-.203-.116-.12.015-.046.111-.04.187.015.167-.072.089-.14.05-.096-.058-.173-.088-.167.087.005.142-.1.19-.216.186-.08-.002-.135-.092-.078-.139.109-.088-.016-.31.173-.318.168-.008.375.105.397-.204 0-.016.076-.047.104-.036.515.199.665-.217.826-.553.173-.364.486-.176.751-.315-.07.289-.286.26-.429.338-.293.16-.343.57-.687.686-.07.023.005.148.099.156.225.02.18.192.187.338l.01-.01zM36.317 90.66c-.09-.411-.198-.814-.377-1.187-.096-.198-.03-.407-.115-.611-.051-.124.384-.1.143-.518.878.783.403 1.57.35 2.315zM112.89 45.583c-.039.245-.1.307-.361.335-.508.056-.959-.188-1.45-.16-.328.019-.287-.357-.441-.53-.036-.04.065-.104.124-.126.086-.03.13.018.194.088.155.172.417.307.585.22.229-.12.352-.035.482.09.267.257.568.135.867.083zM6.74 56.316c.27-.126.57.15.88-.01.085-.045.23-.042.24.124.01.165-.133.158-.23.167-.2.02-.405.041-.604.02-.415-.047-.633.252-.877.504-.05.052-.052.17-.158.136-.14-.047-.209-.167-.238-.311-.019-.09-.005-.192.091-.197.232-.013.343-.126.434-.348.063-.154.266-.158.462-.085zM97.777 66.178c.589-.107 1.17-.05 1.74.096.2.05.145.302.224.488-.419.002-.807-.266-1.172-.194-.409.08-.523-.266-.792-.39zM12.343 41.146c.009.753-.63 1.69-1.24 1.913.187-.775.675-1.324 1.24-1.913zM57.375 31.403a20.69 20.69 0 01-3.783-.094c1.263-.069 2.523.022 3.783.094zM17.065 35.72c-.119-.116-.215-.096-.33.025-.129.136-.241.299-.468.393.107-.326.089-.662.415-.84.076-.041.127-.14.181-.22.27-.396.241-.483-.177-.562.042-.156.132-.32.283-.284.137.034.091.204.03.322-.006.01-.008.034-.003.037.572.349-.033.765.061 1.14l.008-.01zM15.4 37.719c-.065.375-.512.494-.559.921-.218-.172-.44-.378-.385-.632.06-.275.196-.588.557-.628.052-.006.1.004.125-.068.049-.134.117-.146.182-.009.046.096.052.166-.073.222-.16.071-.494.115-.41.285.132.266.304-.147.495-.107.026.005.051.012.069.016zM45.737 90.777c0 .792.002 1.68-.003 2.569 0 .104.003.273-.125.272-.152-.002-.137-.178-.141-.292-.02-.455.14-.896.153-1.333.012-.451.164-.876.116-1.216zM20.711 31.987c.227.013.25.228.345.371-.537.214-.736.768-1.096 1.16-.079.086-.144.208-.29.187a1.63 1.63 0 00-.054-.06c.028-.03.076-.056.08-.09.101-.688.732-1.008 1.015-1.568zM119.694 62.094c.16 0 .299.013.372.19.112.274-.047.477-.156.688-.083.162-.246.152-.393.114-.13-.033-.23-.116-.151-.27.057-.112.04-.207.001-.316-.121-.338.057-.419.327-.406zM44.301 6.76c.169-.09.312-.33.533-.073.062.071.054-.03.078-.064.083-.123.193-.296.342-.186.18.13.182.397.206.6.021.185-.204.127-.318.119-.211-.015-.389.06-.598.185-.009-.243-.082-.435-.234-.587a.185.185 0 01-.009.006zM109.575 63.654a1.451 1.451 0 01-1.107.044c-.128-.043-.253-.127-.389-.077-.31.112-.6.15-.81-.17.472-.105 1.987.002 2.306.203zM43.469 4.517c-.077-.334.039-.537.063-.752.022-.19.09-.369-.077-.545-.148-.157-.034-.308.09-.429.141-.136.295-.1.383.043.115.188.542.41-.033.6-.187.062-.183.355-.255.547-.054.142-.093.29-.171.536zM20.255 27.521c-.432.62-.864 1.234-1.383 1.774-.062.064-.138.173-.234.088-.128-.114.015-.2.07-.273.233-.317.593-.557.768-.874.2-.358.513-.488.78-.715zM121.417 53.268c.482-.139.725-.496 1.064-.72.108-.071.207-.133.328-.033.089.074.151.176.145.285-.01.16-.162.183-.272.198-.403.055-.69.545-1.265.27zM17.275 34.687c.082-.456.586-.521.553-.948.465-.132.611-.623.942-.906.1-.086.203-.182.304-.045.123.168-.092.148-.145.217-.362.467-.852.81-1.178 1.31a.899.899 0 01-.476.372zM96.026 65.148c1.316-.002 2.625-.263 4.035-.088-1.401.23-2.72.092-4.035.088zM43.967 5.742c.05-.404.101-.799-.074-1.18-.066-.143-.082-.293.114-.308.168-.014.41-.093.438.207.014.148.016.328-.052.45-.15.27-.28.551-.426.83zM109.416 63.115c-1.368.121-1.978.07-2.517-.21.912.006 1.724-.012 2.517.21zM28.899 85.456c-.549-.7-.842-1.478-1.316-2.137.522.387 1.11 1.342 1.316 2.137zM32.39 15.58c.195-.28.482-.337.731-.455.06-.028.12-.033.162.055.13.267.326.357.661.107-.295.454-.57.512-.81.255-.04-.043-.04-.14-.129-.038-.172.198-.382.11-.615.075zM36.825 91.151l-.123 1.687-.124.025c.081-.532-.373-.906-.319-1.444.282.011.146.297.283.396.156-.17.06-.437.283-.664zM27.85 76.088c-.285-.091-1.04-1.046-1.156-1.487.548.394.832.953 1.155 1.487zM50.546 20.037c-.31.239-.573.397-.526.773.012.1-.134.195-.2.146-.117-.089-.241-.142-.366-.208-.054-.028.034-.174.104-.241.247-.24.52-.43.988-.47zM21.228 31.895c.006-.28.224-.508.178-.8.235-.012.253-.384.523-.336a.712.712 0 01-.104.478c-.089.158-.028.216.09.283.058.034.235-.088.165.11-.042.116-.164.145-.27.064-.062-.047-.106-.119-.164-.186-.19.115-.201.362-.334.523l-.084-.136zM2.641 49.045c-.264-.012-.6.058-.733-.195-.164-.312.277-.45.309-.841.147.758.147.758.424 1.036zM28.86 84.517a15.024 15.024 0 01-.95-1.803c.358.268.887 1.259.95 1.803zM35.473 90.696c-.2-.557.065-1.088.094-1.631.315.562-.09 1.086-.094 1.631zM73.112 64.47c-.682.23-1.385.093-2.08.1.689-.126 1.384-.127 2.08-.1zM40.54 93.025c-.01.145.017.265-.124.314-.045.016-.078.065-.12.094-.119.08.267.327-.053.272-.212-.036-.187-.359-.169-.574.006-.07.095-.128.128-.2.053-.118.043-.36.164-.33.184.046.14.293.175.424zM41.375 5.423c.137.245.079.527.213.763.042.075.015.157-.106.218-.22.11-.24-.09-.332-.271l-.098.364c-.21-.498.472-.63.323-1.074zM15.273 36.965c.146-.563.52-.97.88-1.387-.18.54-.559.943-.88 1.387zM13.356 63.686c-.196-.28-.574-.293-.824-.635.55.236 1.018.47 1.464.795-.131.06-.224-.09-.327-.003l.01.005c-.008-.13-.086-.118-.171-.09l.01.006c-.01-.128-.09-.113-.173-.09l.011.012zM3.5 47.681c-.25 0-.5-.006-.75.002-.162.005-.163-.095-.16-.214.004-.142.08-.12.187-.125.288-.012.47.243.722.337zM8.819 46.31c.303-.1.518-.286.922-.296-.397.186-.45.583-.796.708-.064-.146.313-.394-.126-.412zM20.786 31.516c-.059.011-.144-.026-.146.088-.142.117-.27.303-.479.123-.102-.087-.05-.158.038-.22.199-.143.396-.318.587.01zM48.434 19.507c-.023.21-.228.17-.329.27-.061.062-.117.179-.225.08-.07-.061-.04-.154-.029-.235.015-.102.046-.199.17-.19.14.012.293-.043.413.075zM105.065 63.554c.327-.105.648-.365 1.034-.04-.178.117-.321.22-.518.107-.165-.096-.344.007-.516-.067zM119.565 61.474c.199-.174.413-.194.623-.222.078-.01.172.002.181.112a.162.162 0 01-.134.18c-.212.039-.424.052-.67-.07zM114.633 59.241c.244-.052.477-.26.765-.008-.39-.072-.56.296-.863.39-.123-.177.355-.175.105-.388l-.007.006zM.48 55.484c.26-.083.444-.478.812-.16-.257.179-.546.144-.813.16zM60.81 32.314c.236-.05.683-.074 1.247-.008-.563.048-1.01.055-1.247.008zM7.316 55.749c-.22.184-.437.254-.648.337-.111.045-.19-.019-.213-.121-.027-.122.09-.116.157-.127.223-.035.449-.058.704-.089zM31.728 84.584c-.212-.36-.331-.634-.372-.944.15.261.44.458.372.944zM116.555 62.998c-.124-.216-.429-.18-.536-.415.467-.159.623-.039.539.419l-.003-.004zM115.913 63.23c.213-.022.445-.12.595.103.045.066.012.2-.07.21-.234.032-.361-.172-.525-.313zM28.311 86.975c-.018-.324-.033-.629-.32-.82.395.139.532.486.32.82zM41.149 8.64c-.135-.112-.119-.256-.13-.387-.008-.092-.032-.207.077-.252a.228.228 0 01.188.013c.113.076.07.199.032.298-.042.113-.108.215-.167.328zM45.687 1.353c-.175.035-.351.04-.498-.077-.028-.024.011-.136.016-.207 0-.01-.015-.022-.024-.033-.04.037-.04.028-.01.046.168.1.52-.177.516.271z"/><path class="st0" d="M107.516 64.265c.062-.011.06-.053.077-.11.03-.106-.325-.174-.029-.276.095-.033.266-.068.286.12.022.195-.1.226-.26.194-.022-.005-.054.044-.082.067l.008.005zM39.457 92.805l.05.32c.143-.006.095-.19.204-.225.023.007.06.009.067.024.075.165-.014.26-.145.32-.093.044-.207.11-.284-.015-.098-.158-.055-.299.108-.424zM49.188 20.907c-.111.19-.268.27-.415.36-.064.038-.157.163-.222.009-.052-.125.065-.17.145-.203.152-.062.312-.107.492-.166zM30.397 16.29c.031-.268-.033-.56.331-.574.085.294-.1.43-.331.574zM31.21 87.118c-.138-.155-.304-.286-.35-.512-.013-.06-.03-.108.023-.136.027-.014.096-.002.106.019.095.202.325.355.222.631l-.001-.002zM4.442 57.734c.138 0 .253.003.367 0 .087-.003.206-.067.209.094.002.145-.13.118-.212.125-.152.013-.285-.034-.364-.219zM111.962 60.848c-.158.292-.158.292-.497-.075l.497.075zM9.154 43.607l.493-.695c-.076.298-.233.538-.493.695zM27.378 23.112c-.026.355-.338.204-.45.364-.02-.026-.061-.057-.057-.078.01-.048.031-.117.066-.132.131-.057.27-.097.44-.154zM30.86 84.66c.146.07.174.246.27.366.037.048-.023.098-.081.098-.19 0-.213-.173-.272-.3-.032-.07-.008-.133.083-.164zM19.604 31.894c.022-.274.174-.461.382-.741-.091.35-.19.575-.382.74zM29.116 21.131c.106-.184.26-.215.418-.208.058.002.076.082.026.126-.123.108-.257.184-.444.082zM104.263 62.256c.057-.267.31-.1.438-.213l.266-.033c-.223.128-.418.337-.704.246zM47.348 13.425c.2-.103.387-.092.601.04-.243.157-.42.024-.601-.04zM99.19 61.91c.267.067.446.098.623.261-.264.086-.427.003-.624-.26zM60.968 67.295c.26-.266.474-.278.725-.25-.199.166-.424.157-.725.25zM102.276 61.383c-.211-.016-.088.234-.206.258-.118.024-.146-.064-.121-.188.024-.12.014-.265.168-.27.047-.001.098.119.159.2zM97.522 66.441c-.205.168-.354-.117-.52.004-.003.002-.062-.05-.064-.08-.006-.069.046-.088.105-.086.16.005.312.033.479.162zM2.14 45.153c-.128-.063-.267-.086-.26-.245.004-.095.098-.072.157-.073.113 0 .217.037.235.17.015.108-.08.117-.133.148zM30.506 78.265c.057.135-.005.215-.075.267-.085.064-.204.23-.29.095-.149-.237.126-.084.17-.155.048-.076.062-.182.195-.207zM112.718 61.095c-.02.09-.102.132-.165.138-.12.011-.134-.115-.162-.2-.024-.075.025-.151.098-.144.11.011.187.092.229.206zM28.428 87.22c.045.245.288.424.2.712.025-.268-.344-.407-.202-.714l.002.003zM32.296 14.1c-.06.307-.213.431-.395.57-.013-.28.16-.394.395-.57zM29.37 17.004c-.001-.282.259-.294.332-.457-.018.208-.147.326-.333.457zM27.803 23.392c-.023.063-.066.127-.063.189.004.074.07.155-.07.152-.038-.001-.088.016-.113-.003-.07-.052-.034-.12.002-.176.055-.09.115-.175.173-.262l.07.1zM31.895 15.491l-.404-.19c.226-.053.366-.013.482.123l-.078.067zM18.763 65.344c.016-.11.073-.171.184-.152.029.005.076.042.075.062-.006.13-.14.091-.2.155l-.059-.065zM108.047 45.363c.134-.045.247-.076.274.04.023.097-.068.088-.133.053-.033-.017-.064-.042-.141-.093zM33.77 83.306l-.158.105c-.005-.026-.022-.069-.013-.076.038-.031.084-.051.127-.075l.043.046zM28.927 17.305c.053.009.109.022.077.096-.012.026-.052.04-.079.058l.001-.152.001-.002zM26.505 74.86c.037.054.084.137.021.17-.096.051-.066-.065-.09-.11l.069-.06zM29.294 17.118l-.12.136a.315.315 0 00-.047-.057l.125-.15c.01.026.024.05.042.071zM101.233 34.381c-.054-.044-.044-.08.012-.112.042-.024.081-.005.084.034.006.08-.06.064-.107.07l.011.008zM19.67 33.705c-.03.08-.082.09-.149.05l.095-.11.053.06zM34.165 83.916c-.02.014-.046.044-.053.039-.025-.016-.044-.044-.065-.067.023-.008.048-.026.068-.022.02.004.033.032.05.05zM35.404 15.963l.058.03.002-.054-.054.035-.006-.01zM15.446 66.618l-.136-.047c.057-.096.123-.031.186-.01a2.991 2.991 0 00-.05.057z"/><path class="st0" d="M15.554 66.742l-.108-.124a2.99 2.99 0 01.05-.057l.138.113-.08.068zM16.517 64.9c-.042-.027-.117-.062-.077-.109.043-.05.122-.032.164.04l-.087.07zM47.887 21.329l-.087-.058c.084-.06.059.035.083.06l.004-.002zM39.798 10.824l.064-.059.002.108-.066-.05zM21.849 70.71c.034.008.072.022.047.064-.008.013-.06-.001-.091-.003a.229.229 0 01.044-.06zM104.316 64.622a19.268 19.268 0 00-.013-.024.164.164 0 00.018.007l-.005.017zM29.037 17.264c0 .033.012.084-.005.097-.062.051-.08-.013-.105-.056v.002l.117-.03-.007-.013z"/><path class="st0" d="M29.174 17.254c-.043.038-.085.099-.137.01l.007.013a8.87 8.87 0 01.083-.08.315.315 0 01.047.057zM23.181 28.035c.037-.02.073-.083.111-.01.007.013-.034.051-.053.078l-.058-.068zM120.8 50.535l-.005-.055.047.015-.051.033.01.007zM29.252 17.047c.032-.012.085-.043.092-.034.05.064.002.088-.05.105a.283.283 0 01-.042-.071zM9.737 42.792l.019-.01-.002.023zM22.26 28.681l-.085.049.015-.098.07.05zM45.432 14.977c.035-.026.07-.082.11-.013.005.01-.036.048-.056.073a1.01 1.01 0 01-.054-.06zM31.211 87.12l.021-.078.037.021-.06.055.002.002zM28.426 87.218l-.056.09c-.058-.085.037-.06.059-.087a.08.08 0 00-.003-.003zM19.605 70.753v-.097l.066.047-.066.05zM116.558 63.002l.051-.092.042.041c-.032.015-.065.03-.096.047l.003.004zM21.776 29.735l.084.052c-.075.06-.051-.041-.082-.054l-.002.002zM23.355 30.083l-.046-.028c.008-.009.019-.026.024-.024.017.004.033.016.049.025l-.027.027zM36.682 13.21l-.018-.012.024-.003zM21.312 32.03l-.104.013.02-.148.084.136zM54.786 64.573c-.274.022-.536.2-.866.077.31-.16.587-.131.866-.077zM118.714 51.988c.118-.15.245-.153.357-.124.094.025.227.009.266.145a.14.14 0 01-.03.114c-.118.119-.18-.04-.271-.065-.098-.027-.198-.044-.322-.07zM22.94 69.437c-.167-.144-.307-.304-.35-.583.274.074.41.221.408.5l-.058.083zM21.28 66.731c-.017.008-.033.018-.05.02-.007.001-.016-.015-.024-.024.017-.007.033-.017.05-.02.006-.001.015.015.023.024zM21.663 67.396l-.025.05c-.008-.009-.023-.02-.022-.026.004-.018.014-.034.022-.05l.025.026z"/><path class="st0" d="M22.998 69.353c.048.018.115.032.067.104-.044.066-.088.02-.125-.02l.058-.084zM91.065 43.773l-.056-.077.035-.014.011.088.01.003zM28.117 25.44c.037-.02.077-.038.102.01.005.012-.025.043-.038.064l-.064-.074zM27.79 28.651c-.048.022-.1.049-.133-.011-.008-.014.036-.059.056-.09l.077.101zM15.7 39.389c.051.115-.018.104-.09.09.002-.06-.019-.142.09-.09z"/></svg>