<svg xmlns="http://www.w3.org/2000/svg" viewBox="0 0 336 3"><path d="M219.619 1.908c-1.3 0-2.261-.017-3.22.008-.413.011-.877-.185-1.227.227-.034.04-.165.03-.232.001-.981-.434-2.014-.191-3.023-.227a56.406 56.406 0 00-3.12-.001c-.302.006-.607-.075-.92.093-.318.173-.682-.318-1.1.093-.205.2-.854.19-1.141.014a1.847 1.847 0 00-1.584-.16 3.54 3.54 0 01-1.833.169c-2.563-.447-5.139-.107-7.705-.206-.37-.014-.792-.18-1.125.182-.048.053-.221.036-.314-.003-.954-.4-1.95-.088-2.922-.19-1.382.505-2.814.152-4.221.217-.376.017-.767-.248-1.146-.395-.068-.027-.169-.119-.16-.164a.182.182 0 01.257-.132 2.736 2.736 0 001.7.221c2.6-.472 5.217-.155 7.824-.214 2.638-.06 5.28-.027 7.92-.003.648.006 1.301-.139 1.953.205.4.21 1.762.03 2.275-.239.573-.3 1.084-.3 1.635-.028.084.042 1.61.067 1.708.076.725.07 1.488-.281 2.18.203.08.057.252.052.35.007 1.02-.472 2.096-.17 3.143-.222 1.038-.052 2.08.02 3.12-.022.808-.033 1.64.203 2.43-.212.16-.084.478-.122.662.093.16.187.376.07.546.137.507.198.987-.651 1.491-.026.558.006 1.115.014 1.673.017.56.004 1.12.001 1.68.001h3.36c.12 0 .268.046.355-.008.345-.212.666-.045 1.007-.035.759.023 1.575.293 2.3-.197.928.123 1.891-.25 2.8.193.065.032.165.069.217.042.658-.347 1.306.071 1.965.018.715-.057 1.443.034 2.158-.027.647-.054 1.346.27 1.942-.224.636.515 1.376.193 2.06.214.602.019 1.266.26 1.82-.216.534.432 1.063-.094 1.603-.009.526.084 1.079-.107 1.59.232.168.11.47.017.71.017 9.679 0 19.359 0 29.038.002.404 0 .874-.203 1.17-.107.445.144.855.032 1.272.103 1.025.173 2.005-.25 3.02-.24 1.04.01 2.085.068 3.118-.02.802-.067 1.512.333 2.303.274.756-.056 1.52.018 2.279-.023.451-.025.955.21 1.352-.202.356.339.8.192 1.21.209.479.02.96.004 1.44.004.44 0 .881.025 1.319-.007.373-.028.737.096 1.121-.207.358-.282.766.21 1.194.263.417.052.66-.578 1.057-.171.238.242.534.132.79.11.491-.045 1.034.23 1.471-.203.436.391.965.175 1.451.207.518.035 1.04.03 1.56 0 .372-.021.76.13 1.122-.209.149-.14.576-.11.812-.008 1.11.48 2.263.104 3.387.22.146.016.293.028.442-.092.302-.241.66-.228.964-.017.3.21.648.169.907.09.518-.156.995-.388 1.489.024.7-.453 1.534.391 2.231-.229.09-.08.31-.01.47-.01.52 0 1.042.022 1.56-.004 3.453-.175 6.89.32 10.34.246.153-.004.326-.007.454.059.12.061.264.213.267.328.003.13-.191.089-.304.089-1.56.002-3.156-.203-4.67.062-1.35.236-2.667.043-3.99.18-1.747-.518-3.56-.348-5.294-.176-1.819.18-3.62.118-5.427.165-1.84.047-3.68-.013-5.52.022-.707.013-1.339-.355-2.063-.269-.67.08-1.359-.01-2.037.027-.412.023-.873-.19-1.237.204-.042.045-.252.015-.309-.047-.264-.293-.598-.159-.896-.16-2.48-.012-4.96-.01-7.44-.003-.335.001-.715-.13-.975.225-.257-.383-.682-.11-.979-.243-.566-.256-1.048.49-1.637.067-.158-.113-.041.397-.238.398-.457.004-.92.144-1.376-.112-.284-.159-.605-.499-.925-.316-.314.18-.546-.04-.768.007-.279.059-.421.247-.8.031-.327-.186-.923-.225-1.338.102-.154.122-.343.12-.444.065-.822-.442-1.699-.174-2.547-.218-.878-.045-1.76.006-2.64-.02-.255-.008-.458.396-.786.033-.126-.14-.66-.14-.79 0-.328.35-.554.003-.781-.045-.47-.098-.84.522-1.206.236-.456-.36-.911-.156-1.361-.204-.435-.046-.879-.015-1.319-.008-.228.004-.48-.074-.648.182-.03.045-.166.078-.208.05-.69-.463-1.458-.186-2.186-.216-.403-.016-.879-.212-1.23.199-.355-.342-.8-.194-1.21-.212-.44-.02-.88-.005-1.32-.005h-1.32c-.44 0-.88-.014-1.32.004-.39.017-.8-.105-1.165.079-.377.19-.664-.182-1.04-.1-.407.088-.82-.033-1.2.344-.155.156-.742.063-1-.113-.376-.256-.74-.205-1.118-.21-.92-.012-1.84 0-2.76-.006-.309-.001-.587-.053-.682.399-.034.16-.56.166-.59-.015-.066-.407-.296-.343-.567-.396-.355-.07-.523.3-.864.27-.282-.026-.415-.363-.742-.265-.219.066-.536-.044-.682.077-.406.336-.89.232-1.245.134-.455-.126-.89-.233-1.351-.195-.412.034-.854-.169-1.235.22-.15.152-.335-.228-.485-.211-.772.083-1.533-.101-2.334.134a4.24 4.24 0 01-2.55-.053c-.195-.067-.412-.151-.552-.082-.511.253-.99-.068-1.489-.026-.556.047-1.119.011-1.679.011h-1.68c-.56 0-1.12-.022-1.68.008-.412.022-.873-.185-1.23.224-.052.06-.244.044-.348.003-1.344-.527-2.741-.082-4.102-.244-.378-.044-.64.475-.969.232-.326-.241-.737-.35-.976-.196-.645.415-1.37.319-1.947.171-1.535-.394-3.069-.027-4.25-.198zM181.161 2.148c-.388.172-.699-.28-1.14-.256-.456.026-.931.118-1.384-.065.432-.34.933-.144 1.394-.138.338.005.524-.292.847-.268.3.023.607-.06.657.405.015.144.328.285-.074.321-.079.007-.158.001-.3.001zM106.172 2.01c-.64 0-1.28.022-1.918-.008-.412-.02-.805.052-1.245-.184-.323-.173-.925-.217-1.337.133-.338.287-.532-.42-.811-.133-.313.32-.67.14-1.005.19-.785.115-1.504-.272-2.298-.261-3.875.051-7.752.035-11.627.009-.525-.004-1.113.257-1.586-.21-.428.436-.967.177-1.453.214-.556.043-1.122-.03-1.676.021-.568.053-1.17-.223-1.71.217-.215.174-.354-.244-.61-.234-.519.02-1.04.022-1.558 0-.298-.013-.597.092-.899-.163-.167-.142-.552-.134-.796-.058-1.511.473-3.06.08-4.577.246-.371.041-.585-.364-.851-.236-.25.121-.466.267-.75.216-.486-.087-1.032.23-1.469-.23-.047-.05-.214-.033-.318.075-.291.304-.717.226-1.004.132-.953-.309-1.856-.305-2.814-.001-.426.135-.941.017-1.411-.033-.11-.011-.266-.204-.278-.326-.011-.116.185-.095.3-.095.759-.001 1.522.043 2.276-.013.768-.058 1.52.1 2.317-.177.678-.235 1.503-.08 2.26-.04.415.023.873-.2 1.25.154.415-.227.867-.157 1.308-.163.44-.007.9-.087 1.315.014 1.16.286 2.33.225 3.5.214.373-.003.796.18 1.12-.188.04-.044.163-.065.217-.037 1.015.524 2.097.197 3.14.217 2.796.054 5.594.009 8.391.029.409.002.872-.19 1.236.203.042.045.246.015.309-.047.343-.34.762-.084 1.132-.17.258-.061.45.31.783.029.198-.167.467.325.842.232.34-.084.715-.018 1.075-.018h1.918c.32 0 .642.025.958-.005.57-.056 1.17.177 1.71-.22.114-.083.347.004.543.1.505.25 1.073.187 1.593.04.17-.048.334-.18.531-.152.372.053.736-.08 1.126.2.23.165.66-.252 1.075-.22.424.034.789.506 1.21.245.63-.39 1.3-.224 1.945-.205.482.014.942.323 1.461.224.036-.007.137.112.128.13-.036.068-.117.11-.159.176-.132.21-.337.168-.532.167h-2.277zM59.313 1.77c-.587-.106-1.32.224-1.962-.24-.279.435-.65-.179-.964.093-.296.256-.651.216-.966.03-.373-.222-.809-.22-1.116-.052-.307.168-.447.197-.69-.046-.11-.109-.273.013-.404.123-.196.163-.458.174-.636 0-.172-.17-.413-.225-.532-.134-.518.396-.98.094-1.495.014-.656-.102-1.343-.002-2.017.011-.23.386-.553-.329-.856.097-.197.276-.53.08-.812-.12-.254-.18-.397.303-.731.238-.716-.14-1.48.196-2.186-.238-.174-.107-.47-.016-.71-.016-2.197 0-4.395-.002-6.593.002-.381 0-.738.087-1.113.189-.42.114-.973-.081-1.412-.27-.465-.2-.87-.238-1.307-.002-.335.18-.84-.09-1.015.11-.389.444-.616-.02-.91-.024-1.04-.012-2.079.002-3.117-.01-.225-.003-.477.1-.673-.109-.079-.084-.232-.18-.222-.252.018-.122.19-.15.295-.109.498.198.989.305 1.482-.005.749.501 1.62-.449 2.357.198.32-.283.774-.31 1.066-.166.36.178.603-.035.896-.027.174.005.308-.03.41-.173.02-.026.073-.061.082-.055.645.483 1.496-.07 2.033.275.49.315.825-.251 1.225.076.38.31.778-.018 1.176-.081.211-.034.478.067.758-.029.251-.085.554-.018.834-.018.2 0 .4.012.598-.006.082-.007.158-.004.153-.19-.009-.305.069-.325.223-.226.68.436 1.354.677 2.134.198.174-.107.499-.087.705-.004 1.108.447 2.256.164 3.383.218.996.048 2.039-.162 2.983.066.71.172 1.428.277 2.06.135.701-.157 1.379-.18 2.07-.181.334 0 .651-.008 1.01.164a1.47 1.47 0 001.35-.075c.281-.17.625-.193.877-.01.245.178.394.212.594-.018.04-.048.152-.087.205-.065 1.222.492 2.496.118 3.74.232.118.01.29.001.296.117.005.108-.214.08-.272.134-.367.351-.812.209-1.229.228-.319.015-.639.003-1.055.003zM115.87 1.53c1.353 0 2.705.001 4.057-.001.187 0 .296.06.284.266-.008.139-.077.223-.214.213-.466-.034-.849.267-1.33.286-.42.017-.817-.402-1.23-.057-.302-.386-.728-.178-1.1-.225-.917-.117-1.876.25-2.767-.236a.234.234 0 00-.307.104c-.292.573-.683.186-1.064.15-.282-.026-.558-.184-.555-.334.008-.354.35-.151.528-.154 1.233-.022 2.466-.012 3.699-.012zM156.666 2.25c-1.437 0-2.874.001-4.311-.001-.306 0-.623.054-.868-.23-.05-.057-.277.005-.29-.118-.011-.11.146-.131.266-.133.575-.008 1.129-.03 1.706-.208.747-.23 1.552.022 2.275.246.432.134.839-.231 1.11-.01.411.337.828.195 1.238.205 1.117.027 2.235.008 3.352.01.114 0 .308-.033.306.093-.004.213-.218.144-.353.144-1.477.003-2.954.002-4.43.002zM139.227 2.25c-.299-.036-.645.126-.873-.212-.016-.023-.083-.039-.105-.025-1.014.642-2.025-.048-3.04-.015-1.476.048-2.956.012-4.434.012-.2 0-.401.016-.6-.004-.188-.02-.502.113-.54-.081-.054-.27.342-.128.498-.314.106-.126.507-.163.658-.062.512.34 1.06.21 1.591.214 2.158.017 4.316.007 6.473.007.28 0 .56-.008.839.004.129.005.198.081.201.23.004.148-.064.227-.19.242-.157.018-.318.004-.478.004zM6.128 1.538c-.531.224-1.064-.392-1.7-.255-.023.005-.076-.094-.097-.15-.006-.015.046-.066.08-.08a.23.23 0 01.118-.002c1.023.166 1.999-.274 3.01-.235.411.016.857-.154 1.226.223.105.107.27-.067.395-.169.204-.165.354-.01.488.138l.155.17c-.065.037-.127.104-.193.107-.278.012-.565.045-.835-.002-.871-.15-1.68.261-2.647.255zM26.366 1.166c-.06.041-.116.112-.18.12-.566.065-1.173-.16-1.692.244-.89-.455-1.846-.148-2.767-.245-.049-.006-.092-.088-.13-.141-.003-.006.049-.07.082-.08.424-.108.842-.474 1.285-.159.251.179.38.022.59-.005.873-.115 1.77-.264 2.62.15.067.033.128.077.192.116zM14.622 1.127c-.076.072-.123.155-.172.157-.32.012-.642-.02-.959.013-.375.04-.741-.089-1.142.151-.222.134-.684-.123-1.034-.22-.08-.021-.05-.167.04-.153.336.05.577-.221.857-.247.634-.057 1.278-.011 1.917-.021.254-.004.276.27.493.32zM121.414 2.01c-.198 0-.396.01-.593-.003-.124-.009-.353.083-.317-.152.02-.122.205-.303.325-.31.551-.033 1.105-.019 1.658-.007.042.001.102.11.119.177.03.12-.014.277-.127.285-.353.027-.71.01-1.065.01z"/></svg>